<svg width="52" height="50" viewBox="0 0 52 50" fill="none" xmlns="http://www.w3.org/2000/svg">
<g clip-path="url(#clip0_75_235)">
<path d="M42.7 0H8.5C3.80558 0 0 3.80558 0 8.5V41.42C0 46.1144 3.80558 49.92 8.5 49.92H42.7C47.3944 49.92 51.2 46.1144 51.2 41.42V8.5C51.2 3.80558 47.3944 0 42.7 0Z" fill="#00005B"/>
<path d="M20.7024 29.8666H12.7684L11.1388 34.8732C11.1181 34.9593 11.0696 35.0361 11.001 35.092C10.9323 35.1478 10.8472 35.1796 10.7588 35.1824H6.70818C6.47898 35.1824 6.39878 35.0564 6.46778 34.8044L13.3658 15.1204L13.4572 14.8498C13.4954 14.7352 13.5336 14.6134 13.5718 14.467C13.6618 14.0088 13.7078 13.543 13.7092 13.076C13.7045 13.0434 13.7076 13.0101 13.718 12.9788C13.7284 12.9475 13.746 12.9191 13.7693 12.8958C13.7927 12.8724 13.8211 12.8549 13.8524 12.8444C13.8836 12.834 13.9169 12.831 13.9496 12.8356H19.4106C19.5706 12.8356 19.6622 12.8928 19.6854 13.0074L27.4534 34.8388C27.5222 35.0678 27.4534 35.1824 27.2474 35.1822H22.7824C22.7057 35.1908 22.6285 35.1711 22.5652 35.1268C22.502 35.0826 22.457 35.0168 22.4388 34.9418L20.7024 29.8666ZM14.0184 25.6304H19.445L19.3678 25.375L19.2434 24.9706L19.0618 24.3914L18.7128 23.298L17.762 20.2894C17.5911 19.749 17.4271 19.2064 17.27 18.6618L17.0944 18.0426L16.9504 17.5292L16.7734 16.8872L16.7316 16.7346H16.6974C16.5255 17.559 16.3161 18.3752 16.07 19.1806L15.838 19.9252L15.28 21.7252L14.9206 22.8892L14.768 23.3746L14.6164 23.8486L14.4656 24.3112C14.3205 24.7523 14.1716 25.1921 14.0184 25.6304ZM29.8578 34.8554V22.1956C29.8578 22.1092 29.8578 22.0204 29.857 21.9296L29.8546 21.6496L29.8504 21.3562L29.8408 20.8906L29.8294 20.484C29.8232 20.2877 29.8158 20.0914 29.8074 19.8952L29.7894 19.5166L29.7634 19.047L29.7418 18.703L29.729 18.5274L29.7206 18.4258C29.7072 18.3916 29.7034 18.3544 29.7094 18.3181C29.7154 18.2819 29.7311 18.2479 29.7548 18.2198C29.7829 18.1952 29.8156 18.1765 29.851 18.1647C29.8864 18.1529 29.9238 18.1483 29.961 18.1512H33.3896C33.5079 18.1473 33.6255 18.1708 33.7332 18.2198C33.8258 18.2676 33.8896 18.3572 33.9048 18.4602L34.0594 18.924C34.1226 19.1513 34.1629 19.3843 34.1796 19.6196C34.8436 19.0379 35.6132 18.5891 36.4464 18.2974C37.2748 18.0106 38.1457 17.8654 39.0224 17.868C39.7051 17.8712 40.3831 17.9813 41.0318 18.1944C41.7806 18.4338 42.4635 18.8439 43.0268 19.3922C43.59 19.9406 44.0182 20.6123 44.2776 21.3544C44.621 22.236 44.7556 23.3752 44.7556 24.7716V34.8554C44.7556 35.0614 44.664 35.1644 44.4808 35.1644L40.4678 35.2C40.4211 35.2067 40.3735 35.2025 40.3288 35.1876C40.284 35.1727 40.2434 35.1476 40.21 35.1143C40.1767 35.081 40.1516 35.0403 40.1367 34.9956C40.1218 34.9509 40.1175 34.9033 40.1242 34.8566V25.2894C40.1131 24.6487 39.972 24.0168 39.7096 23.4322C39.5253 23.0009 39.2213 22.6313 38.8336 22.3674C38.3954 22.0992 37.8873 21.9677 37.374 21.9896C36.822 21.9816 36.274 22.081 35.7598 22.2816C35.2897 22.4693 34.8587 22.743 34.489 23.0886V34.8554C34.489 35.0614 34.3974 35.1644 34.2142 35.1644H30.1672C30.1252 35.1704 30.0824 35.1666 30.0421 35.1532C30.0019 35.1398 29.9653 35.1172 29.9353 35.0872C29.9053 35.0572 29.8827 35.0207 29.8693 34.9804C29.8559 34.9402 29.852 34.8974 29.858 34.8554H29.8578Z" fill="#9999FF"/>
</g>
<defs>
<clipPath id="clip0_75_235">
<rect width="51.2" height="50" fill="white"/>
</clipPath>
</defs>
</svg>
