<svg width="50" height="50" viewBox="0 0 50 50" fill="none" xmlns="http://www.w3.org/2000/svg">
<path fill-rule="evenodd" clip-rule="evenodd" d="M25.0002 1.40333L46.6668 14.0433V35.9567L25.0002 48.6L3.3335 35.9567V14.0433L25.0002 1.39999V1.40333ZM25.0002 13.3333C21.906 13.3333 18.9385 14.5625 16.7506 16.7504C14.5627 18.9383 13.3335 21.9058 13.3335 25C13.3335 28.0942 14.5627 31.0616 16.7506 33.2496C18.9385 35.4375 21.906 36.6667 25.0002 36.6667H25.6068C28.8602 36.6667 31.9835 35.3733 34.2868 33.0733L34.5135 32.8467L32.1535 30.4867L31.9268 30.7133C30.2509 32.3901 27.9776 33.3325 25.6068 33.3333H25.0002C22.79 33.3333 20.6704 32.4554 19.1076 30.8925C17.5448 29.3297 16.6668 27.2101 16.6668 25C16.6668 22.7899 17.5448 20.6702 19.1076 19.1074C20.6704 17.5446 22.79 16.6667 25.0002 16.6667H25.6068C27.9768 16.6667 30.2502 17.61 31.9268 19.2867L32.1535 19.5133L34.5135 17.1533L34.2868 16.9267C33.1469 15.7871 31.7936 14.8832 30.3042 14.2666C28.8149 13.6501 27.2187 13.3329 25.6068 13.3333H25.0002Z" fill="black"/>
</svg>
