<svg width="23" height="23" viewBox="0 0 23 23" fill="none" xmlns="http://www.w3.org/2000/svg">
<path d="M19.5022 21.2856L1.00774 3.01119C0.740477 2.74711 0.589069 2.38767 0.586821 2.01196C0.584573 1.63624 0.73167 1.27502 0.995753 1.00776C1.25983 0.740497 1.61927 0.58909 1.99499 0.586842C2.3707 0.584594 2.73192 0.73169 2.99918 0.995773L21.4936 19.2702C21.7609 19.5343 21.9123 19.8937 21.9145 20.2695C21.9168 20.6452 21.7697 21.0064 21.5056 21.2737C21.2415 21.5409 20.8821 21.6923 20.5064 21.6946C20.1307 21.6968 19.7694 21.5497 19.5022 21.2856Z" fill="#FE6464"/>
<path d="M1.00417 19.3395L19.4337 0.99953C19.7 0.734501 20.0607 0.586125 20.4364 0.58704C20.8122 0.587956 21.1721 0.738089 21.4372 1.00441C21.7022 1.27074 21.8506 1.63143 21.8496 2.00715C21.8487 2.38288 21.6986 2.74285 21.4323 3.00787L3.00275 21.3478C2.73643 21.6128 2.37573 21.7612 2.00001 21.7603C1.62429 21.7594 1.26432 21.6092 0.999291 21.3429C0.734263 21.0766 0.585885 20.7159 0.586801 20.3402C0.587717 19.9645 0.737849 19.6045 1.00417 19.3395Z" fill="#FE6464"/>
</svg>
