<svg width="50" height="50" viewBox="0 0 50 50" fill="none" xmlns="http://www.w3.org/2000/svg">
<g clip-path="url(#clip0_72_123)">
<path d="M46.6544 12.5C46.3065 11.8958 45.8252 11.3688 45.2961 11.0625L26.9294 0.458337C25.869 -0.154163 24.1377 -0.154163 23.0794 0.458337L4.70856 11.0625C3.65023 11.6729 2.78564 13.1729 2.78564 14.3958V35.6042C2.78564 36.2167 3.00231 36.8958 3.35023 37.5C3.69814 38.1042 4.17939 38.6313 4.70856 38.9375L23.0752 49.5417C24.1336 50.1521 25.8669 50.1521 26.9252 49.5417L45.2919 38.9375C45.8211 38.6313 46.3023 38.1042 46.6502 37.5C46.9981 36.8958 47.2127 36.2167 47.2127 35.6042V14.3958C47.219 13.7833 47.0044 13.1042 46.6544 12.5ZM25.0002 39.8125C16.8336 39.8125 10.1898 33.1667 10.1898 25C10.1898 16.8333 16.8356 10.1875 25.0023 10.1875C27.6006 10.1924 30.1521 10.8785 32.4025 12.1773C34.6528 13.4761 36.5233 15.3423 37.8273 17.5896L31.419 21.2979C30.7674 20.1724 29.8319 19.2375 28.7059 18.5868C27.5799 17.936 26.3028 17.5922 25.0023 17.5896C23.0375 17.5912 21.1535 18.3725 19.7642 19.7619C18.3748 21.1512 17.5935 23.0351 17.5919 25C17.5947 26.9638 18.3761 28.8463 19.7649 30.2347C21.1537 31.6231 23.0365 32.404 25.0002 32.4063C26.3002 32.4035 27.5768 32.06 28.7026 31.41C29.8285 30.7601 30.7644 29.8264 31.4169 28.7021L37.8294 32.4104C36.5247 34.6581 34.6535 36.5243 32.4024 37.8232C30.1513 39.122 27.5991 39.8079 25.0002 39.8125ZM39.8127 25.8229H38.1669V27.4688H36.5211V25.8229H34.8752V24.1771H36.5211V22.5313H38.1669V24.1771H39.8127V25.8229ZM45.9836 25.8229H44.3377V27.4688H42.6919V25.8229H41.0461V24.1771H42.6919V22.5313H44.3377V24.1771H45.9836V25.8229Z" fill="black"/>
</g>
<defs>
<clipPath id="clip0_72_123">
<rect width="50" height="50" fill="white"/>
</clipPath>
</defs>
</svg>
