<svg width="50" height="50" viewBox="0 0 50 50" fill="none" xmlns="http://www.w3.org/2000/svg">
<path d="M13.919 31.3555H6.39639C7.39248 34.7734 9.24053 37.8359 11.9472 40.541C16.2612 44.8562 21.4491 47.0109 27.5144 47.0109C28.7276 47.0109 29.9026 46.9211 31.044 46.7484C35.614 46.0586 39.6147 43.9926 43.0421 40.5414C45.7655 37.8355 47.6272 34.7734 48.6312 31.3555H13.919ZM9.77178 21.1379H5.84092C5.69424 22.0147 5.5985 22.8992 5.5542 23.7871H49.478C49.4333 22.8992 49.337 22.0146 49.1897 21.1379M5.5542 26.2465C5.59872 27.1343 5.69445 28.0189 5.84092 28.8957H49.1913C49.3378 28.0184 49.4335 27.1348 49.4796 26.2465M48.6327 18.6766C47.6288 15.2512 45.7671 12.1734 43.0417 9.44843C39.6237 6.0289 35.6339 3.97812 31.0792 3.28828C29.8998 3.1101 28.7087 3.02079 27.5159 3.02109C21.4495 3.02109 16.2612 5.16523 11.9476 9.44804C9.24053 12.1734 7.38975 15.2512 6.39482 18.6766" fill="#2C2255"/>
<path d="M4.24814 25.0168C4.24814 13.4141 12.9626 3.77345 24.2997 2.07814C24.0188 2.06759 23.7353 2.05548 23.4513 2.05548C10.7302 2.05704 0.416504 12.3367 0.416504 25.0168C0.416504 37.6984 10.7302 47.9781 23.4517 47.9781C23.7368 47.9781 24.0188 47.9676 24.3013 47.957C12.9626 46.2617 4.24814 36.6211 4.24814 25.0168Z" fill="#F7941E"/>
<path d="M42.4638 23.7852C42.3917 22.8905 42.2395 22.0042 42.0091 21.1367H13.0235C12.7931 22.0042 12.6409 22.8905 12.5688 23.7852H42.4638Z" fill="url(#paint0_linear_75_208)"/>
<path d="M42.4638 26.2465H12.5688C12.6403 27.141 12.7931 28.0273 13.0235 28.8957H42.0091C42.2395 28.028 42.3917 27.1414 42.4638 26.2465Z" fill="url(#paint1_linear_75_208)"/>
<path d="M27.5158 40.0195C33.5354 40.0195 38.7252 36.4715 41.1131 31.3555H13.9189C16.3084 36.4715 21.4963 40.0195 27.5158 40.0195Z" fill="url(#paint2_linear_75_208)"/>
<path d="M10.3529 26.2465H49.4475C49.4689 25.8527 49.4795 25.4584 49.4795 25.0641C49.4795 24.6352 49.4639 24.2098 49.4396 23.7856H5.55449C5.52971 24.2113 5.51643 24.6376 5.51465 25.0641C5.51465 25.461 5.52676 25.8543 5.54668 26.2465H10.3529ZM13.8318 18.6766H6.39473C6.15059 19.4777 5.99199 20.3004 5.84082 21.1379H49.0506C48.9015 20.3067 48.7039 19.485 48.4588 18.677M46.2244 28.8957H5.84121C5.9877 29.7317 6.15566 30.5543 6.39668 31.3555H48.6037C48.8449 30.5474 49.0393 29.7262 49.1857 28.8957H46.2244Z" fill="white"/>
<defs>
<linearGradient id="paint0_linear_75_208" x1="27.5164" y1="49.9941" x2="27.5164" y2="16.9117" gradientUnits="userSpaceOnUse">
<stop offset="0.303" stop-color="#473788"/>
<stop offset="0.872" stop-color="#2C2255"/>
</linearGradient>
<linearGradient id="paint1_linear_75_208" x1="27.5164" y1="49.9941" x2="27.5164" y2="16.9117" gradientUnits="userSpaceOnUse">
<stop offset="0.303" stop-color="#473788"/>
<stop offset="0.872" stop-color="#2C2255"/>
</linearGradient>
<linearGradient id="paint2_linear_75_208" x1="27.5161" y1="50.0003" x2="27.5161" y2="16.9127" gradientUnits="userSpaceOnUse">
<stop offset="0.303" stop-color="#473788"/>
<stop offset="0.863" stop-color="#2C2255"/>
</linearGradient>
</defs>
</svg>
