<svg width="20" height="16" viewBox="0 0 20 16" fill="none" xmlns="http://www.w3.org/2000/svg">
<path d="M1.49998 0.916626H8.58331C8.95904 0.916626 9.31937 1.06588 9.58505 1.33156C9.85072 1.59723 9.99998 1.95757 9.99998 2.33329C9.99998 2.70902 9.85072 3.06935 9.58505 3.33503C9.31937 3.6007 8.95904 3.74996 8.58331 3.74996H1.49998C1.12426 3.74996 0.763922 3.6007 0.498245 3.33503C0.232569 3.06935 0.083313 2.70902 0.083313 2.33329C0.083313 1.95757 0.232569 1.59723 0.498245 1.33156C0.763922 1.06588 1.12426 0.916626 1.49998 0.916626ZM11.4166 12.25H18.5C18.8757 12.25 19.236 12.3992 19.5017 12.6649C19.7674 12.9306 19.9166 13.2909 19.9166 13.6666C19.9166 14.0423 19.7674 14.4027 19.5017 14.6684C19.236 14.934 18.8757 15.0833 18.5 15.0833H11.4166C11.0409 15.0833 10.6806 14.934 10.4149 14.6684C10.1492 14.4027 9.99998 14.0423 9.99998 13.6666C9.99998 13.2909 10.1492 12.9306 10.4149 12.6649C10.6806 12.3992 11.0409 12.25 11.4166 12.25ZM1.49998 6.58329H18.5C18.8757 6.58329 19.236 6.73255 19.5017 6.99822C19.7674 7.2639 19.9166 7.62424 19.9166 7.99996C19.9166 8.37568 19.7674 8.73602 19.5017 9.00169C19.236 9.26737 18.8757 9.41663 18.5 9.41663H1.49998C1.12426 9.41663 0.763922 9.26737 0.498245 9.00169C0.232569 8.73602 0.083313 8.37568 0.083313 7.99996C0.083313 7.62424 0.232569 7.2639 0.498245 6.99822C0.763922 6.73255 1.12426 6.58329 1.49998 6.58329Z" fill="#FE6464"/>
</svg>
