<svg width="50" height="50" viewBox="0 0 50 50" fill="none" xmlns="http://www.w3.org/2000/svg">
<g clip-path="url(#clip0_72_125)">
<path d="M38.2812 0H11.7188C5.24666 0 0 5.24666 0 11.7188V38.2812C0 44.7533 5.24666 50 11.7188 50H38.2812C44.7533 50 50 44.7533 50 38.2812V11.7188C50 5.24666 44.7533 0 38.2812 0Z" fill="#F4F2ED"/>
<path d="M19.8504 35.6678C19.8504 35.6678 18.3504 36.5807 20.8944 36.8418C23.9662 37.2332 25.5905 37.1678 28.9817 36.516C28.9817 36.516 29.8946 37.1037 31.134 37.5598C23.5022 40.8207 13.8494 37.3641 19.8504 35.6678ZM18.8721 31.4285C18.8721 31.4285 17.2412 32.668 19.785 32.9283C23.1108 33.2543 25.7207 33.3197 30.2211 32.4074C30.2211 32.4074 30.8088 33.06 31.7865 33.3859C22.5906 36.1252 12.2846 33.6463 18.8721 31.4291V31.4285ZM36.874 38.8641C36.874 38.8641 37.9826 39.7769 35.6346 40.4949C31.2643 41.7992 17.3067 42.1912 13.3932 40.4949C12.0242 39.9072 14.6328 39.059 15.4803 38.9295C16.3283 38.7338 16.7846 38.7338 16.7846 38.7338C15.2846 37.69 6.8051 40.8861 12.4797 41.8059C28.0682 44.3502 40.9178 40.6973 36.8735 38.8707L36.874 38.8641ZM20.5678 26.9928C20.5678 26.9928 13.458 28.6891 18.0233 29.2754C19.9801 29.5357 23.8281 29.4711 27.4156 29.21C30.3508 28.9494 33.2926 28.4273 33.2926 28.4273C33.2926 28.4273 32.2487 28.884 31.5315 29.3402C24.2856 31.2334 10.3928 30.3853 14.3717 28.4285C17.7643 26.7977 20.5678 26.9928 20.5678 26.9928ZM33.2858 34.1023C40.5918 30.3191 37.1992 26.6668 34.8512 27.1236C34.2635 27.2539 34.0031 27.3842 34.0031 27.3842C34.0031 27.3842 34.1987 26.9928 34.6555 26.8633C39.2862 25.2324 42.9393 31.7551 33.1557 34.2988C33.1557 34.2988 33.2211 34.2334 33.2858 34.1031V34.1023ZM21.285 44.407C28.3293 44.8639 39.0912 44.1465 39.3524 40.8193C39.3524 40.8193 38.8315 42.1236 33.5477 43.1021C27.5473 44.2107 20.111 44.0805 15.7414 43.3625C15.7414 43.3625 16.6543 44.1451 21.2856 44.4062L21.285 44.407Z" fill="#4E7896"/>
<path d="M28.8449 5.46875C28.8449 5.46875 32.8887 9.57793 24.9969 15.7734C18.6699 20.7953 23.5611 23.6656 24.9969 26.926C21.2791 23.6002 18.6058 20.6645 20.431 17.925C23.1117 13.8834 30.481 11.9266 28.8449 5.46875ZM26.758 24.1879C28.6492 26.3402 26.2371 28.2971 26.2371 28.2971C26.2371 28.2971 31.0635 25.8193 28.8463 22.7527C26.824 19.8176 25.2588 18.3824 33.7381 13.49C33.7381 13.49 20.3668 16.8158 26.7594 24.1865L26.758 24.1879Z" fill="#F58219"/>
</g>
<defs>
<clipPath id="clip0_72_125">
<rect width="50" height="50" fill="white"/>
</clipPath>
</defs>
</svg>
