<svg width="36" height="32" viewBox="0 0 36 32" fill="none" xmlns="http://www.w3.org/2000/svg">
<path d="M31.71 31.93C30.17 31.93 28.56 31.195 26.88 29.725C24.8733 27.9983 23.0417 25.3733 21.385 21.85C21.175 21.43 20.9183 20.9167 20.615 20.31C20.3117 19.68 19.9617 18.9683 19.565 18.175H18.97C15.1433 26.0617 10.7217 30.005 5.705 30.005C3.97833 30.005 2.60167 29.445 1.575 28.325C0.548333 27.2283 0.035 25.77 0.035 23.95C0.035 22.06 0.583333 20.3917 1.68 18.945C2.91667 17.405 4.445 16.635 6.265 16.635C6.80167 16.635 7.29167 16.7867 7.735 17.09C8.225 17.3467 8.47 17.7433 8.47 18.28C8.47 18.3967 8.435 18.4783 8.365 18.525C8.295 18.245 8.19 18.0233 8.05 17.86C7.81667 17.4633 7.33833 17.265 6.615 17.265C4.98167 17.265 3.65167 18.0933 2.625 19.75C1.715 21.1733 1.26 22.7483 1.26 24.475C1.26 25.945 1.61 27.135 2.31 28.045C3.05667 29.095 4.15333 29.62 5.6 29.62C8.33 29.62 11.0017 27.765 13.615 24.055C14.315 23.0283 14.9683 22.0133 15.575 21.01C16.1817 20.0067 16.73 19.0033 17.22 18C16.8933 17.9533 16.5667 17.8833 16.24 17.79C15.9367 17.6733 15.6217 17.5567 15.295 17.44C14.7117 18.7 14.07 19.89 13.37 21.01C12.6933 22.1067 11.97 23.1567 11.2 24.16C9.00667 27.1 7.02333 28.57 5.25 28.57C5.04 28.57 4.935 28.4883 4.935 28.325C4.935 28.185 5.04 28.1033 5.25 28.08C5.36667 28.0567 5.51833 28.0217 5.705 27.975C5.915 27.9517 6.14833 27.905 6.405 27.835C7.22167 27.5083 8.03833 26.96 8.855 26.19C9.695 25.4433 10.5583 24.475 11.445 23.285C12.0983 22.3983 12.7167 21.4533 13.3 20.45C13.8833 19.4467 14.4433 18.3967 14.98 17.3C13.3933 16.5533 12.6 15.7483 12.6 14.885C12.6 14.465 12.8217 14.0683 13.265 13.695C13.7317 13.345 14.1867 13.17 14.63 13.17C15.2133 13.17 15.82 13.4033 16.45 13.87C17.85 10.1833 18.69 6.74167 18.97 3.545C16.8467 3.63833 14.7817 4.01167 12.775 4.665C10.4417 5.41167 8.63333 6.46167 7.35 7.815C6.46333 8.67833 6.02 9.67 6.02 10.79C6.02 12.6333 7 13.94 8.96 14.71C9.21667 14.85 9.68333 14.99 10.36 15.13C10.5 15.1533 10.57 15.2117 10.57 15.305C10.57 15.375 10.4883 15.41 10.325 15.41H10.255C9.555 15.41 8.87833 15.2583 8.225 14.955C7.57167 14.6517 6.94167 14.2433 6.335 13.73C5.05167 12.6567 4.41 11.42 4.41 10.02C4.41 9.06333 4.81833 8.17667 5.635 7.36C6.31167 6.68333 7.16333 6.065 8.19 5.505C9.24 4.945 10.4767 4.46667 11.9 4.07C14.0933 3.46333 16.4617 3.10167 19.005 2.985V0.71C19.005 0.546666 19.075 0.464999 19.215 0.464999C19.285 0.464999 19.32 0.523332 19.32 0.639999C19.4133 1.29333 19.4483 2.06333 19.425 2.95H21C21.9567 2.95 22.8667 2.99666 23.73 3.09C24.5933 3.18333 25.4333 3.31167 26.25 3.475C28.3033 3.94167 29.995 4.63 31.325 5.54C33.0983 6.77667 33.985 8.28167 33.985 10.055C33.985 11.7817 33.1333 13.3333 31.43 14.71C30.1233 15.7833 28.4667 16.6233 26.46 17.23C25.55 17.51 24.5817 17.7317 23.555 17.895C22.5517 18.035 21.49 18.1283 20.37 18.175C21.1167 19.1783 21.8633 20.1933 22.61 21.22C23.3567 22.2233 24.115 23.2383 24.885 24.265C25.9117 25.665 26.845 26.8083 27.685 27.695C28.525 28.5817 29.2367 29.2233 29.82 29.62C30.9633 30.4133 31.955 30.81 32.795 30.81C34.055 30.81 34.685 29.97 34.685 28.29C34.685 26.7733 34.2067 25.3617 33.25 24.055C33.18 23.985 33.145 23.9267 33.145 23.88C33.145 23.81 33.18 23.775 33.25 23.775C33.39 23.775 33.5067 23.845 33.6 23.985C34.6967 25.2917 35.245 26.68 35.245 28.15C35.245 29.27 34.9183 30.1683 34.265 30.845C33.6117 31.5683 32.76 31.93 31.71 31.93ZM19.775 17.37C21.0117 17.37 22.1667 17.3117 23.24 17.195C24.3133 17.0783 25.3283 16.8917 26.285 16.635C27.8717 16.145 29.2017 15.4917 30.275 14.675C31.5817 13.5783 32.235 12.3067 32.235 10.86C32.235 9.20333 31.465 7.745 29.925 6.485C29.295 5.94833 28.595 5.49333 27.825 5.12C27.055 4.74667 26.2267 4.43167 25.34 4.175C23.66 3.73167 21.8983 3.51 20.055 3.51H19.39C19.18 6.66 18.305 10.1833 16.765 14.08C17.0217 14.29 17.2783 14.5233 17.535 14.78C17.7917 15.0133 18.0483 15.2817 18.305 15.585C19.1917 13.4383 19.9383 11 20.545 8.27C20.5683 8.15333 20.5917 8.01333 20.615 7.85C20.6383 7.66333 20.685 7.465 20.755 7.255C20.965 6.555 21.42 6.205 22.12 6.205C22.54 6.205 22.75 6.36833 22.75 6.695C22.75 6.81167 22.7267 6.99833 22.68 7.255C22.6333 7.48833 22.5633 7.80333 22.47 8.2C21.84 11.0933 20.86 14.045 19.53 17.055L19.775 17.37ZM15.295 16.635C15.4817 16.2383 15.6567 15.8417 15.82 15.445C15.9833 15.0483 16.1467 14.6517 16.31 14.255C15.9833 14.045 15.68 13.8817 15.4 13.765C15.1433 13.6483 14.8867 13.59 14.63 13.59C13.9767 13.59 13.65 13.9167 13.65 14.57C13.65 15.34 14.1983 16.0283 15.295 16.635ZM17.57 17.3C17.6633 17.09 17.7567 16.8917 17.85 16.705C17.9433 16.495 18.0367 16.285 18.13 16.075C17.8967 15.7483 17.64 15.4567 17.36 15.2C17.1033 14.9433 16.8467 14.7217 16.59 14.535C16.45 14.9083 16.2983 15.2817 16.135 15.655C15.9717 16.005 15.8083 16.3783 15.645 16.775C16.205 17.0317 16.8467 17.2067 17.57 17.3Z" fill="black"/>
</svg>
