<svg width="40" height="44" viewBox="0 0 40 44" fill="none" xmlns="http://www.w3.org/2000/svg">
<path d="M20 40.75V22M20 22L4.375 12.625M20 22L35.625 12.625M20 3.24996V12.625M35.625 30.3333L28.3333 26.1666M11.6667 26.1666L4.375 30.3333M36.4062 10.0625C37.1223 10.4697 37.7168 11.0603 38.1288 11.7736C38.5407 12.4869 38.7551 13.2971 38.75 14.1208V29.2958C38.75 30.9812 37.8271 32.5354 36.3375 33.3541L22.275 42.25C21.5778 42.6327 20.7953 42.8334 20 42.8334C19.2047 42.8334 18.4222 42.6327 17.725 42.25L3.6625 33.3541C2.93368 32.9558 2.32526 32.369 1.90086 31.6551C1.47646 30.9412 1.25167 30.1263 1.25 29.2958V14.1187C1.25 12.4333 2.17292 10.8812 3.6625 10.0625L17.725 1.77079C18.4428 1.37503 19.2491 1.16748 20.0687 1.16748C20.8884 1.16748 21.6947 1.37503 22.4125 1.77079L36.475 10.0625H36.4062ZM27.2917 16.6458C27.6108 16.83 27.8754 17.0957 28.0584 17.4155C28.2414 17.7354 28.3363 18.0981 28.3333 18.4666V25.275C28.3331 25.6466 28.2336 26.0114 28.0449 26.3315C27.8563 26.6517 27.5854 26.9156 27.2604 27.0958L21.0104 31.0895C20.7012 31.261 20.3535 31.351 20 31.351C19.6465 31.351 19.2988 31.261 18.9896 31.0895L12.7396 27.0958C12.4149 26.9157 12.1443 26.6522 11.9556 26.3324C11.767 26.0127 11.6672 25.6483 11.6667 25.277V18.4666C11.6667 18.0952 11.7659 17.7306 11.9542 17.4104C12.1425 17.0903 12.4129 16.8263 12.7375 16.6458L18.9875 12.925C19.6354 12.5645 20.425 12.5645 21.0708 12.925L27.3208 16.6479L27.2917 16.6458Z" stroke="black" stroke-width="2" stroke-linecap="round" stroke-linejoin="round"/>
</svg>
