<svg width="50" height="50" viewBox="0 0 50 50" fill="none" xmlns="http://www.w3.org/2000/svg">
<g clip-path="url(#clip0_75_231)">
<path d="M0 0H50V50H0V0Z" fill="#2A0634"/>
<path d="M0 0V50H50V0H0ZM48.0469 48.0469H1.95312V1.95312H48.0469V48.0469Z" fill="#E976B9"/>
<path d="M26.9531 18.3984C26.9141 14.7266 23.9062 11.7969 20.2344 11.8359H13.0078V34.6875H16.7578V26.3672H20C23.8281 26.3281 26.9531 23.1641 26.9531 19.2969V18.3984ZM23.2031 19.5703C23.2031 21.5234 21.6016 23.125 19.6484 23.125H16.7578V15.0391H19.6484C21.6016 15.0391 23.2031 16.6406 23.2031 18.5937V19.5703ZM30.1172 34.6875V19.1016C30.1172 19.1016 34.1016 17.1094 38.0078 17.6172V20.8594C38.0078 20.8594 35.2734 20.8594 34.0625 21.3672V34.7266H30.1172V34.6875Z" fill="#E976B9"/>
</g>
<defs>
<clipPath id="clip0_75_231">
<rect width="50" height="50" fill="white"/>
</clipPath>
</defs>
</svg>
