<svg width="50" height="50" viewBox="0 0 50 50" fill="none" xmlns="http://www.w3.org/2000/svg">
<g clip-path="url(#clip0_72_185)">
<path d="M35.0571 7.89062L49.6665 20.0416L44.4062 30.7447L35.5989 28.3021H27.979L35.0571 7.89062Z" fill="url(#paint0_linear_72_185)"/>
<path d="M20.3385 15.7813L17.5104 30.7447L17.2396 35.8281L10.1094 38.9166L0 40.0053L3.06777 7.67715L21.3854 0L32.6719 7.40098L20.3385 15.7813Z" fill="url(#paint1_linear_72_185)"/>
<path d="M20.3385 15.7812L21.7135 44.6146L17.1459 50L0 40.0053L14.0781 19.026L20.3385 15.7812Z" fill="url(#paint2_linear_72_185)"/>
<path d="M39.2032 13.6771H21.8804L37.1876 0L39.2032 13.6771Z" fill="url(#paint3_linear_72_185)"/>
<path d="M50.0001 44.7291L34.7501 49.9062L14.4429 44.1875L20.3386 15.7813L22.6929 13.6771L35.0573 12.5156L33.9376 24.9322L43.771 21.1197L50.0001 44.7291Z" fill="url(#paint4_linear_72_185)"/>
<path d="M9.375 9.375H40.625V40.625H9.375V9.375Z" fill="black"/>
<path d="M13.271 34.7187H24.9897V36.6719H13.271V34.7187ZM13.2813 13.2812H18.0729C20.8366 13.2812 22.5233 14.9045 22.5569 17.2566L22.5573 17.3594C22.5573 20.0678 20.4479 21.474 17.8229 21.474H15.8854V24.9844H13.2813V13.2812ZM17.896 19.1822C19.1606 19.1822 19.9118 18.4424 19.937 17.4623L19.9376 17.3803C19.9376 16.224 19.1354 15.6041 17.8542 15.6041H15.8854V19.1822H17.896ZM23.9532 19.1719V19.1406C23.9382 18.3377 24.086 17.5401 24.3878 16.7959C24.6895 16.0517 25.139 15.3764 25.709 14.8108C26.279 14.2452 26.9578 13.8009 27.7043 13.5049C28.4508 13.2089 29.2495 13.0672 30.0522 13.0885C30.9051 13.0454 31.7574 13.1837 32.5529 13.4944C33.3483 13.805 34.0688 14.2809 34.6667 14.8906L33.0313 16.7812C32.2442 15.9661 31.1693 15.4913 30.0366 15.4584C28.0845 15.4584 26.6724 17.0627 26.6413 19.0375L26.6407 19.1406C26.6407 21.1459 28.0313 22.8178 30.0366 22.8178C31.2534 22.8178 32.0397 22.3873 32.8653 21.6713L32.9896 21.5617C33.0315 21.5241 33.0732 21.4861 33.1146 21.4478L34.7501 23.099C34.1611 23.7876 33.4231 24.333 32.592 24.6939C31.7608 25.0549 30.8585 25.2219 29.9532 25.1822C29.1611 25.1942 28.3747 25.0468 27.6406 24.7489C26.9066 24.4509 26.2399 24.0085 25.6802 23.4478C25.1205 22.8872 24.6792 22.2198 24.3826 21.4852C24.0859 20.7507 23.9399 19.964 23.9532 19.1719Z" fill="white"/>
</g>
<defs>
<linearGradient id="paint0_linear_72_185" x1="-984.524" y1="1150.6" x2="1991" y2="1150.6" gradientUnits="userSpaceOnUse">
<stop stop-color="#21D789"/>
<stop offset="1" stop-color="#07C3F2"/>
</linearGradient>
<linearGradient id="paint1_linear_72_185" x1="-625.993" y1="4219.8" x2="4180.36" y2="671.832" gradientUnits="userSpaceOnUse">
<stop offset="0.01" stop-color="#FCF84A"/>
<stop offset="0.11" stop-color="#A7EB62"/>
<stop offset="0.21" stop-color="#5FE077"/>
<stop offset="0.27" stop-color="#32DA84"/>
<stop offset="0.31" stop-color="#21D789"/>
<stop offset="0.58" stop-color="#21D789"/>
<stop offset="0.6" stop-color="#21D789"/>
<stop offset="0.69" stop-color="#20D68C"/>
<stop offset="0.76" stop-color="#1ED497"/>
<stop offset="0.83" stop-color="#19D1A9"/>
<stop offset="0.9" stop-color="#13CCC2"/>
<stop offset="0.97" stop-color="#0BC6E1"/>
<stop offset="1" stop-color="#07C3F2"/>
</linearGradient>
<linearGradient id="paint2_linear_72_185" x1="916.96" y1="3984.03" x2="1882.54" y2="953.826" gradientUnits="userSpaceOnUse">
<stop stop-color="#21D789"/>
<stop offset="0.16" stop-color="#24D888"/>
<stop offset="0.3" stop-color="#2FD985"/>
<stop offset="0.43" stop-color="#41DC80"/>
<stop offset="0.55" stop-color="#5AE079"/>
<stop offset="0.67" stop-color="#7AE46F"/>
<stop offset="0.79" stop-color="#A1EA64"/>
<stop offset="0.9" stop-color="#CFF157"/>
<stop offset="1" stop-color="#FCF84A"/>
</linearGradient>
<linearGradient id="paint3_linear_72_185" x1="-146.342" y1="1977.03" x2="1537.92" y2="-287.578" gradientUnits="userSpaceOnUse">
<stop stop-color="#21D789"/>
<stop offset="0.09" stop-color="#23D986"/>
<stop offset="0.17" stop-color="#2ADE7B"/>
<stop offset="0.25" stop-color="#36E669"/>
<stop offset="0.27" stop-color="#3BEA62"/>
<stop offset="0.35" stop-color="#47EB61"/>
<stop offset="0.49" stop-color="#67ED5D"/>
<stop offset="0.69" stop-color="#9AF156"/>
<stop offset="0.92" stop-color="#E0F64D"/>
<stop offset="1" stop-color="#FCF84A"/>
</linearGradient>
<linearGradient id="paint4_linear_72_185" x1="3780.66" y1="1900.03" x2="-271.474" y2="1862.33" gradientUnits="userSpaceOnUse">
<stop offset="0.39" stop-color="#FCF84A"/>
<stop offset="0.46" stop-color="#ECF74C"/>
<stop offset="0.61" stop-color="#C1F451"/>
<stop offset="0.82" stop-color="#7EEF5A"/>
<stop offset="1" stop-color="#3BEA62"/>
</linearGradient>
<clipPath id="clip0_72_185">
<rect width="50" height="50" fill="white"/>
</clipPath>
</defs>
</svg>
