<svg width="50" height="50" viewBox="0 0 50 50" fill="none" xmlns="http://www.w3.org/2000/svg">
<g clip-path="url(#clip0_72_130)">
<path d="M29.6875 0.375L31.5625 0.791667L33.0833 1.33333L34.3125 1.95833L35.25 2.625L35.9583 3.33333L36.4792 4.04167L36.8125 4.72917L37.0208 5.35417L37.1042 5.89583L37.1458 6.3125L37.125 6.58333V17.7083L37.0208 19.0208L36.75 20.1667L36.3125 21.125L35.7708 21.9167L35.1458 22.5625L34.4583 23.0833L33.7292 23.4792L33 23.7708L32.3125 23.9792L31.6875 24.125L31.1458 24.2083L30.7083 24.25H18.2708L16.8333 24.3542L15.6042 24.6458L14.5625 25.1042L13.7083 25.6667L13.0208 26.3333L12.4583 27.0625L12.0417 27.8125L11.7292 28.5833L11.5208 29.3125L11.375 29.9792L11.2917 30.5417L11.25 30.9792V37.3542H6.60417L6.16667 37.2917L5.58333 37.1458L4.91667 36.8958L4.1875 36.5208L3.4375 35.9792L2.6875 35.2292L1.95833 34.2708L1.29167 33.0417L0.708333 31.5208L0.270833 29.6875L-0.0208333 27.5L-0.125 24.9375L-7.45058e-09 22.3958L0.333333 20.2292L0.833333 18.4167L1.5 16.9375L2.25 15.75L3.08333 14.8333L3.95833 14.1458L4.83333 13.6458L5.66667 13.3125L6.41667 13.1042L7.08333 13L7.58333 12.9792H7.91667L8.04167 13H25.0417V11.2708H12.875L12.8542 5.54167L12.8125 4.77083L12.9167 4.0625L13.1458 3.41667L13.5 2.83333L14.0208 2.29167L14.6667 1.8125L15.4583 1.39583L16.375 1.02083L17.4375 0.708333L18.6458 0.458333L19.9792 0.25L21.4583 0.125L23.0625 0.0416667L24.8125 0L27.4583 0.104167L29.6875 0.375ZM16.5625 4.5L16.0833 5.1875L15.9167 6.04167L16.0833 6.89583L16.5625 7.60417L17.25 8.0625L18.1042 8.25L18.9583 8.0625L19.6458 7.60417L20.125 6.89583L20.2917 6.04167L20.125 5.1875L19.6458 4.5L18.9583 4.04167L18.1042 3.85417L17.25 4.04167L16.5625 4.5ZM43.8333 12.7292L44.4167 12.8542L45.0833 13.1042L45.8125 13.4792L46.5625 14.0417L47.3125 14.7708L48.0417 15.75L48.7083 16.9792L49.2917 18.5L49.7292 20.3333L50.0208 22.5L50.125 25.0625L50 27.625L49.6667 29.7917L49.1667 31.5833L48.5 33.0625L47.75 34.25L46.9167 35.1875L46.0417 35.875L45.1667 36.375L44.3333 36.7083L43.5833 36.8958L42.9167 37L42.4167 37.0417L42.0833 37.0208H24.9583V38.7292H37.125L37.1458 44.4792L37.1875 45.2292L37.0833 45.9375L36.8542 46.5833L36.5 47.1875L35.9792 47.7083L35.3333 48.2083L34.5417 48.625L33.625 48.9792L32.5625 49.2917L31.3542 49.5625L30.0208 49.75L28.5417 49.8958L26.9375 49.9792L25.1875 50L22.5417 49.9167L20.3125 49.625L18.4375 49.2083L16.9167 48.6875L15.6875 48.0625L14.75 47.375L14.0417 46.6667L13.5208 45.9583L13.1875 45.2708L12.9792 44.6458L12.8958 44.125L12.8542 43.7083L12.875 43.4375V32.3125L12.9792 30.9792L13.25 29.8542L13.6875 28.8958L14.2292 28.1042L14.8542 27.4375L15.5417 26.9375L16.2708 26.5208L17 26.2292L17.6875 26.0208L18.3125 25.8958L18.8542 25.8125L19.2917 25.7708L19.5625 25.75H31.7292L33.1667 25.6458L34.3958 25.3542L35.4375 24.9167L36.2917 24.3333L36.9792 23.6667L37.5417 22.9375L37.9583 22.1875L38.2708 21.4375L38.4792 20.7083L38.625 20.0417L38.7083 19.4583L38.75 19.0208V12.6458H43.1042L43.3958 12.6667L43.8333 12.7292ZM30.3542 42.4167L29.875 43.1042L29.7083 43.9583L29.875 44.8125L30.3542 45.5L31.0417 45.9792L31.8958 46.1458L32.75 45.9792L33.4375 45.5L33.9167 44.8125L34.0833 43.9583L33.9167 43.1042L33.4375 42.4167L32.75 41.9375L31.8958 41.7708L31.0417 41.9375L30.3542 42.4167Z" fill="black"/>
</g>
<defs>
<clipPath id="clip0_72_130">
<rect width="50" height="50" fill="white"/>
</clipPath>
</defs>
</svg>
