<svg width="50" height="50" viewBox="0 0 50 50" fill="none" xmlns="http://www.w3.org/2000/svg">
<g clip-path="url(#clip0_72_169)">
<mask id="mask0_72_169" style="mask-type:alpha" maskUnits="userSpaceOnUse" x="0" y="0" width="50" height="50">
<path fill-rule="evenodd" clip-rule="evenodd" d="M35.456 49.6586C35.8539 49.8137 36.2794 49.8853 36.7061 49.8689C37.1329 49.8525 37.5517 49.7485 37.9365 49.5633L48.2306 44.6098C48.7607 44.3546 49.2081 43.9549 49.5211 43.4567C49.8341 42.9585 50.0002 42.3821 50.0001 41.7937V8.20664C50.0003 7.61821 49.8343 7.0417 49.5212 6.54345C49.2082 6.0452 48.7608 5.64546 48.2306 5.39023L37.9365 0.437495C37.3548 0.157614 36.7005 0.0654642 36.0641 0.173798C35.4278 0.282133 34.8408 0.585593 34.3845 1.04218L14.6775 19.0211L6.09389 12.5051C5.70668 12.2111 5.22877 12.0619 4.74308 12.0835C4.25738 12.105 3.79456 12.2959 3.43491 12.623L0.681781 15.1273C0.467229 15.3225 0.29577 15.5603 0.178372 15.8254C0.0609738 16.0906 0.000221206 16.3774 6.02952e-07 16.6674C-0.000220001 16.9575 0.0600963 17.2443 0.177091 17.5097C0.294086 17.7751 0.465183 18.0131 0.679437 18.2086L8.12358 25L0.679828 31.7918C0.46569 31.9873 0.294695 32.2253 0.177773 32.4906C0.0608514 32.756 0.000574322 33.0428 0.000794903 33.3327C0.00101548 33.6227 0.0617289 33.9094 0.179054 34.1746C0.29638 34.4397 0.467737 34.6775 0.682171 34.8727L3.4353 37.3769C3.79486 37.7042 4.25767 37.8952 4.74339 37.9168C5.22911 37.9385 5.70706 37.7893 6.09428 37.4953L14.6779 30.9797L34.3849 48.9582C34.6896 49.2635 35.0541 49.502 35.456 49.6586ZM37.5076 13.6496L22.5548 25L37.5079 36.3508L37.5076 13.6496Z" fill="white"/>
</mask>
<g mask="url(#mask0_72_169)">
<path d="M48.231 5.39842L37.9286 0.437483C37.3467 0.157417 36.6921 0.0651672 36.0555 0.173502C35.4189 0.281837 34.8316 0.585399 34.3751 1.04217L0.649328 31.7918C0.43503 31.9872 0.263891 32.2252 0.146866 32.4905C0.02984 32.7559 -0.0304935 33.0427 -0.0302728 33.3327C-0.0300522 33.6227 0.0307176 33.9095 0.148147 34.1747C0.265576 34.4398 0.437077 34.6776 0.651672 34.8726L3.40636 37.3769C3.76625 37.7042 4.22931 37.8952 4.71525 37.9168C5.20119 37.9384 5.67938 37.7893 6.06691 37.4953L46.6806 6.68475C48.0431 5.65116 50.0001 6.62303 50.0001 8.33319V8.21366C50.0001 7.62541 49.834 7.04912 49.5211 6.55103C49.2081 6.05295 48.7609 5.65369 48.231 5.39842Z" fill="#0065A9"/>
<g filter="url(#filter0_d_72_169)">
<path d="M48.231 44.6019L37.9286 49.5621C37.3468 49.8422 36.6923 49.9346 36.0556 49.8264C35.419 49.7182 34.8317 49.4148 34.3751 48.9582L0.649328 18.2082C0.43503 18.0128 0.263891 17.7748 0.146866 17.5094C0.02984 17.2441 -0.0304935 16.9572 -0.0302728 16.6672C-0.0300522 16.3772 0.0307176 16.0905 0.148147 15.8253C0.265576 15.5601 0.437077 15.3224 0.651672 15.1273L3.40636 12.623C3.76625 12.2958 4.22931 12.1048 4.71525 12.0832C5.20119 12.0616 5.67938 12.2107 6.06691 12.5047L46.6806 43.3148C48.0431 44.3488 50.0001 43.3769 50.0001 41.6668V41.7863C50.0001 42.3745 49.834 42.9508 49.5211 43.4489C49.2081 43.947 48.7609 44.3467 48.231 44.6019Z" fill="#007ACC"/>
</g>
<g filter="url(#filter1_d_72_169)">
<path d="M37.9289 49.5633C37.3469 49.8431 36.6922 49.9352 36.0556 49.8268C35.4189 49.7184 34.8316 49.4149 34.375 48.9582C35.5281 50.1113 37.5 49.2945 37.5 47.6637V2.33592C37.5 0.705059 35.5281 -0.111738 34.375 1.04178C34.8316 0.58506 35.4189 0.281511 36.0556 0.173113C36.6922 0.0647148 37.3469 0.156823 37.9289 0.436699L48.2293 5.39061C48.7597 5.64567 49.2073 6.04534 49.5206 6.5436C49.8338 7.04186 50 7.61846 50 8.20701V41.7937C50 42.3823 49.8338 42.9589 49.5206 43.4571C49.2073 43.9554 48.7597 44.3551 48.2293 44.6101L37.9289 49.5633Z" fill="#1F9CF0"/>
</g>
<path opacity="0.25" fill-rule="evenodd" clip-rule="evenodd" d="M35.4259 49.6586C35.8237 49.8137 36.2492 49.8852 36.6759 49.8688C37.1025 49.8524 37.5213 49.7484 37.906 49.5633L48.2001 44.6098C48.7303 44.3545 49.1777 43.9548 49.4907 43.4565C49.8038 42.9583 49.9698 42.3818 49.9697 41.7934V8.20664C49.9698 7.61821 49.8038 7.0417 49.4907 6.54345C49.1777 6.0452 48.7303 5.64546 48.2001 5.39023L37.906 0.437495C37.3243 0.157614 36.67 0.0654642 36.0337 0.173798C35.3973 0.282133 34.8104 0.585593 34.3541 1.04218L14.647 19.0211L6.06343 12.5055C5.67622 12.2115 5.19831 12.0623 4.71261 12.0838C4.22692 12.1054 3.76409 12.2963 3.40444 12.6234L0.651318 15.1277C0.43682 15.3229 0.265409 15.5607 0.148045 15.8259C0.0306815 16.0911 -0.0300522 16.3778 -0.0302728 16.6678C-0.0304934 16.9578 0.029804 17.2447 0.146764 17.5101C0.263724 17.7754 0.434773 18.0135 0.648974 18.209L8.09311 25L0.649365 31.7914C0.43511 31.9869 0.264013 32.2249 0.147019 32.4903C0.0300241 32.7556 -0.0302922 33.0425 -0.0300716 33.3325C-0.029851 33.6226 0.0309016 33.9093 0.1483 34.1745C0.265698 34.4397 0.437157 34.6775 0.651708 34.8727L3.40483 37.3769C3.76444 37.7041 4.22724 37.8951 4.71293 37.9167C5.19863 37.9384 5.67657 37.7893 6.06382 37.4953L14.6478 30.9793L34.3548 48.9582C34.6594 49.2634 35.0242 49.5019 35.4259 49.6586ZM37.4775 13.6492L22.5244 25L37.4775 36.3504V13.6492Z" fill="url(#paint0_linear_72_169)"/>
</g>
</g>
<defs>
<filter id="filter0_d_72_169" x="-8.36427" y="3.74712" width="66.6983" height="54.4573" filterUnits="userSpaceOnUse" color-interpolation-filters="sRGB">
<feFlood flood-opacity="0" result="BackgroundImageFix"/>
<feColorMatrix in="SourceAlpha" type="matrix" values="0 0 0 0 0 0 0 0 0 0 0 0 0 0 0 0 0 0 127 0" result="hardAlpha"/>
<feOffset/>
<feGaussianBlur stdDeviation="4.167"/>
<feColorMatrix type="matrix" values="0 0 0 0 0 0 0 0 0 0 0 0 0 0 0 0 0 0 0.25 0"/>
<feBlend mode="overlay" in2="BackgroundImageFix" result="effect1_dropShadow_72_169"/>
<feBlend mode="normal" in="SourceGraphic" in2="effect1_dropShadow_72_169" result="shape"/>
</filter>
<filter id="filter1_d_72_169" x="26.041" y="-8.20509" width="32.293" height="66.4102" filterUnits="userSpaceOnUse" color-interpolation-filters="sRGB">
<feFlood flood-opacity="0" result="BackgroundImageFix"/>
<feColorMatrix in="SourceAlpha" type="matrix" values="0 0 0 0 0 0 0 0 0 0 0 0 0 0 0 0 0 0 127 0" result="hardAlpha"/>
<feOffset/>
<feGaussianBlur stdDeviation="4.167"/>
<feColorMatrix type="matrix" values="0 0 0 0 0 0 0 0 0 0 0 0 0 0 0 0 0 0 0.25 0"/>
<feBlend mode="overlay" in2="BackgroundImageFix" result="effect1_dropShadow_72_169"/>
<feBlend mode="normal" in="SourceGraphic" in2="effect1_dropShadow_72_169" result="shape"/>
</filter>
<linearGradient id="paint0_linear_72_169" x1="24.9697" y1="0.128901" x2="24.9697" y2="49.8711" gradientUnits="userSpaceOnUse">
<stop stop-color="white"/>
<stop offset="1" stop-color="white" stop-opacity="0"/>
</linearGradient>
<clipPath id="clip0_72_169">
<rect width="50" height="50" fill="white"/>
</clipPath>
</defs>
</svg>
