<svg width="50" height="50" viewBox="0 0 50 50" fill="none" xmlns="http://www.w3.org/2000/svg">
<g clip-path="url(#clip0_75_215)">
<path d="M38.2812 0H11.7188C5.24666 0 0 5.24666 0 11.7188V38.2812C0 44.7533 5.24666 50 11.7188 50H38.2812C44.7533 50 50 44.7533 50 38.2812V11.7188C50 5.24666 44.7533 0 38.2812 0Z" fill="#470137"/>
<path d="M26.2186 15.667L20.3592 25.335L26.6092 35.5889C26.6483 35.667 26.6678 35.7451 26.6483 35.8232C26.6288 35.9014 26.5506 35.8428 26.4334 35.8623H21.9608C21.6483 35.8623 21.4334 35.8428 21.2967 35.6475C20.8866 34.8272 20.4569 34.0264 20.0467 33.2061C19.6366 32.4053 19.1873 31.585 18.7186 30.7451C18.2498 29.9053 17.7811 29.0654 17.3123 28.2061H17.2733C16.8631 29.0459 16.4139 29.8857 15.9647 30.7256C15.5155 31.5654 15.0663 32.4053 14.6366 33.2256C14.1873 34.0459 13.7381 34.8857 13.2889 35.6865C13.2108 35.8818 13.0545 35.9014 12.8397 35.9014H8.54282C8.46469 35.9014 8.4061 35.9404 8.4061 35.8428C8.38657 35.7647 8.4061 35.6865 8.44516 35.6279L14.5194 25.667L8.60141 15.6475C8.54282 15.5693 8.52329 15.4912 8.56235 15.4522C8.60141 15.3936 8.67954 15.374 8.75766 15.374H13.1913C13.2889 15.374 13.3866 15.3936 13.4647 15.4131C13.5428 15.4522 13.6014 15.5107 13.66 15.5889C14.0311 16.4287 14.4608 17.2686 14.91 18.1084C15.3788 18.9482 15.828 19.7686 16.3163 20.5889C16.785 21.4092 17.2147 22.2295 17.6248 23.0693H17.6639C18.0741 22.21 18.5038 21.3701 18.9334 20.5498C19.3631 19.7295 19.8123 18.9092 20.2616 18.0889C20.7108 17.2686 21.1405 16.4287 21.5702 15.6279C21.5897 15.5498 21.6288 15.4717 21.6873 15.4326C21.7655 15.3936 21.8436 15.374 21.9413 15.3936H26.0623C26.16 15.374 26.2577 15.4326 26.2772 15.5303C26.2967 15.5498 26.2577 15.6279 26.2186 15.667ZM35.242 36.2727C33.7967 36.2922 32.3514 35.9992 31.0428 35.3938C29.8123 34.8273 28.7967 33.8898 28.0936 32.7375C27.3709 31.5461 27.0194 30.0617 27.0194 28.2844C26.9998 26.8391 27.3709 25.4133 28.0936 24.1633C28.8358 22.8938 29.91 21.8391 31.1991 21.1359C32.5663 20.3742 34.2069 20.0031 36.1405 20.0031C36.2381 20.0031 36.3749 20.0031 36.5506 20.0227C36.7264 20.0422 36.9217 20.0422 37.1561 20.0617V13.8898C37.1561 13.7531 37.2147 13.675 37.3514 13.675H41.3163C41.4139 13.6555 41.492 13.7336 41.5116 13.8117V32.4445C41.5116 32.7961 41.5311 33.1867 41.5506 33.6164C41.5897 34.0266 41.6092 34.4172 41.6288 34.7492C41.6288 34.8859 41.5702 35.0031 41.4334 35.0617C40.4178 35.4914 39.3436 35.8039 38.2499 35.9992C37.2538 36.175 36.2577 36.2727 35.242 36.2727ZM37.1561 32.3664V23.7727C36.9803 23.7336 36.8045 23.6945 36.6288 23.675C36.4139 23.6555 36.1991 23.6359 35.9842 23.6359C35.2225 23.6359 34.4608 23.7922 33.7772 24.1438C33.1131 24.4758 32.5467 24.9641 32.117 25.5891C31.6873 26.2141 31.4725 27.0539 31.4725 28.0695C31.453 28.7531 31.5702 29.4367 31.8045 30.0813C31.9999 30.6086 32.2928 31.0773 32.6834 31.468C33.0545 31.8195 33.5038 32.093 34.0116 32.2492C34.5389 32.425 35.0858 32.5031 35.6327 32.5031C35.9256 32.5031 36.1991 32.4836 36.453 32.4641C36.7069 32.4836 36.9217 32.4445 37.1561 32.3664Z" fill="#FF61F6"/>
</g>
<defs>
<clipPath id="clip0_75_215">
<rect width="50" height="50" fill="white"/>
</clipPath>
</defs>
</svg>
